<svg xmlns="http://www.w3.org/2000/svg" data-name="Layer 1" viewBox="0 0 168 168" id="link"><path fill="#2d4356" d="M144 53a2 2 0 1 0-2-2 2.002 2.002 0 0 0 2 2zm0-3a1 1 0 1 1-1 1 1.001 1.001 0 0 1 1-1zm-33-32a3 3 0 1 0-3-3 3.003 3.003 0 0 0 3 3zm0-4.5a1.5 1.5 0 1 1-1.5 1.5 1.501 1.501 0 0 1 1.5-1.5zm40 .5a3 3 0 1 0 3 3 3.003 3.003 0 0 0-3-3zm0 4.5a1.5 1.5 0 1 1 1.5-1.5 1.501 1.501 0 0 1-1.5 1.5zM37 6a2 2 0 1 0-2-2 2.002 2.002 0 0 0 2 2zm0-3a1 1 0 1 1-1 1 1.001 1.001 0 0 1 1-1zM9 41a2 2 0 1 0-2-2 2.002 2.002 0 0 0 2 2zm0-3a1 1 0 1 1-1 1 1.001 1.001 0 0 1 1-1z"></path><circle cx="2" cy="146" r="2" fill="#2d4356"></circle><path fill="#2d4356" d="M11 144H8a2 2 0 0 0 0 4h3a2 2 0 0 0 0-4zm149 0h-3a2 2 0 0 0 0 4h3a2 2 0 0 0 0-4z"></path><circle cx="166" cy="146" r="2" fill="#2d4356"></circle><path fill="#2d4356" d="M150.721 144h-3.802a7.698 7.698 0 0 0 1.081-3.929V71.93A8.057 8.057 0 0 0 139.82 64h-38.676a10.225 10.225 0 0 1 .312 4h38.364a4.065 4.065 0 0 1 4.18 3.929v68.142a4.065 4.065 0 0 1-4.18 3.929H80.18a4.065 4.065 0 0 1-4.18-3.929v-28.825a9.813 9.813 0 0 1-3.593-.816c-.14-.062-.27-.136-.407-.204v29.845A7.698 7.698 0 0 0 73.08 144H17.28a2.017 2.017 0 1 0 0 4H150.72a2.017 2.017 0 1 0 0-4Z"></path><path fill="#2d4356" d="M28.18 104h38.672a10.152 10.152 0 0 1-.311-4H28.18A4.065 4.065 0 0 1 24 96.071V27.93A4.065 4.065 0 0 1 28.18 24h59.64A4.065 4.065 0 0 1 92 27.929v28.827a9.77 9.77 0 0 1 3.592.813c.14.062.271.137.408.205V27.93A8.057 8.057 0 0 0 87.82 20H28.18A8.057 8.057 0 0 0 20 27.929V96.07A8.057 8.057 0 0 0 28.18 104Z"></path><path fill="#0bceb2" d="M118.154 153h-8.308a2.006 2.006 0 0 0 0 4h8.308a2.006 2.006 0 0 0 0-4zm-60 0h-8.308a2.006 2.006 0 0 0 0 4h8.308a2.006 2.006 0 0 0 0-4zM104 153H64a2 2 0 0 0 0 4h15.94v2H72a2 2 0 0 0 0 4h25a2 2 0 0 0 0-4h-8.94v-2H104a2 2 0 0 0 0-4zM16.431 62.103l.944-1.241-.596-.338-.606 1.39h-.02l-.615-1.38-.607.347.934 1.212v.02l-1.46-.189v.675l1.47-.188v.02l-.944 1.211.566.358.647-1.401h.019l.596 1.391.626-.358-.954-1.192v-.019l1.5.178v-.675l-1.5.199v-.02zM69.777 17.067l-.857 1.099.514.324.586-1.27h.018l.54 1.261.568-.324-.865-1.082v-.018l1.36.163v-.613l-1.36.18v-.018l.856-1.126-.54-.306-.55 1.261h-.018l-.558-1.253-.551.316.848 1.099v.018l-1.325-.171v.613l1.334-.171v.018zM15.542 11.618l-.992-1.24v-.021l1.56.186v-.702l-1.56.206v-.021l.982-1.291-.62-.351-.63 1.446h-.021l-.64-1.436-.631.362.971 1.26v.021l-1.519-.196v.702l1.529-.196v.021l-.981 1.26.588.372.673-1.457h.02l.62 1.446.651-.371zM128.377 26.626l1.022-1.344-.645-.365-.656 1.504h-.022l-.666-1.494-.656.377 1.01 1.311v.022l-1.58-.205v.731l1.591-.204v.022l-1.021 1.311.612.387.7-1.516h.021l.645 1.505.677-.387-1.032-1.29v-.021l1.623.193v-.731l-1.623.215v-.021zM108.087 46.163l.645 1.505.677-.387-1.032-1.29v-.021l1.623.193v-.731l-1.623.215v-.021l1.022-1.344-.645-.365-.656 1.504h-.022l-.666-1.494-.656.377 1.01 1.311v.022l-1.58-.205v.731l1.591-.204v.022l-1.021 1.311.612.387.7-1.516h.021zM165 86.163v-.731l-1.623.215v-.021l1.022-1.344-.645-.365-.656 1.504h-.022l-.666-1.494-.656.377 1.01 1.311v.022l-1.58-.205v.731l1.591-.204v.022l-1.021 1.311.612.387.7-1.516h.021l.645 1.505.677-.387-1.032-1.29v-.021l1.623.193zM73.613 107.683a7.094 7.094 0 0 0 9.296-3.767l3.869-8.821a7.162 7.162 0 0 0-1.815-8.311l1.737-3.96a7.162 7.162 0 0 0 7.343-4.296l3.869-8.82a7.002 7.002 0 1 0-12.821-5.624l-3.869 8.821a7.163 7.163 0 0 0 1.815 8.312l-1.737 3.96a7.162 7.162 0 0 0-7.343 4.295l-3.869 8.82a7.094 7.094 0 0 0 3.525 9.391ZM84.8 74.475l3.869-8.821a3.094 3.094 0 1 1 5.665 2.484l-3.869 8.821a3.187 3.187 0 0 1-1.965 1.76l1.285-2.93a2.006 2.006 0 1 0-3.663-1.606l-1.285 2.93a3.188 3.188 0 0 1-.037-2.638ZM73.666 99.862l3.869-8.821a3.187 3.187 0 0 1 1.965-1.76l-1.285 2.93a2.006 2.006 0 1 0 3.663 1.606l1.285-2.929a3.187 3.187 0 0 1 .036 2.638l-3.868 8.82a3.094 3.094 0 1 1-5.665-2.484Z"></path></svg>