<svg xmlns="http://www.w3.org/2000/svg" data-name="Layer 1" viewBox="0 0 168 168" id="website-sketching"><path fill="#0bceb2" d="M118 35.947h4a2 2 0 1 0 0-4h-4a2 2 0 0 0 0 4zm-12 0h4a2 2 0 1 0 0-4h-4a2 2 0 0 0 0 4z"></path><path fill="#2d4356" d="M48 127.947h16a4 4 0 0 0 4-4v-34a4 4 0 0 0-4-4H48a4 4 0 0 0-4 4v34a4 4 0 0 0 4 4zm0-38h16v34H48zm44-4H76a4 4 0 0 0-4 4v34a4 4 0 0 0 4 4h16a4 4 0 0 0 4-4v-34a4 4 0 0 0-4-4zm0 38H76v-34h16zm28-38h-16a4 4 0 0 0-4 4v34a4 4 0 0 0 4 4h16a4 4 0 0 0 4-4v-34a4 4 0 0 0-4-4zm0 38h-16v-34h16z"></path><path fill="#0bceb2" d="M46 135.947h20a2 2 0 0 0 0-4H46a2 2 0 0 0 0 4Z"></path><path fill="#2d4356" d="M46 143.947h20a2 2 0 0 0 0-4H46a2 2 0 0 0 0 4zm48-12H74a2 2 0 0 0 0 4h20a2 2 0 0 0 0-4z"></path><path fill="#0bceb2" d="M94 139.947H74a2 2 0 0 0 0 4h20a2 2 0 0 0 0-4zm28-8h-20a2 2 0 0 0 0 4h20a2 2 0 0 0 0-4z"></path><path fill="#2d4356" d="M122 139.947h-20a2 2 0 0 0 0 4h20a2 2 0 0 0 0-4Z"></path><path fill="#0bceb2" d="M48 81.947h30a4 4 0 0 0 4-4v-26a4 4 0 0 0-4-4H48a4 4 0 0 0-4 4v26a4 4 0 0 0 4 4zm3.193-4 11.84-10.313L74.82 77.947zM78 75.414 66.078 64.983 78 54.599zm-3.045-23.467L63.04 62.324 51.18 51.947zM48 54.479l11.996 10.497L48 75.424zm38.888 26.249a1.987 1.987 0 0 0 1.043.626 3.964 3.964 0 0 0 2.069.593h30a4 4 0 0 0 4-4v-26a3.959 3.959 0 0 0-.419-1.75 1.98 1.98 0 0 0-1.514-1.659 3.964 3.964 0 0 0-2.067-.591H90a4 4 0 0 0-4 4v26a3.959 3.959 0 0 0 .419 1.749 1.988 1.988 0 0 0 .469 1.032zm6.236-2.781 11.605-10.112 11.984 10.112zM120 75.487l-12.219-10.31L120 54.53zm-3.124-23.54-12.188 10.62L92.1 51.946zM90 55.407l11.636 9.818L90 75.363z"></path><circle cx="2" cy="149.947" r="2" fill="#2d4356"></circle><path fill="#2d4356" d="M11 147.947H8a2 2 0 0 0 0 4h3a2 2 0 0 0 0-4zm149 0h-3a2 2 0 0 0 0 4h3a2 2 0 0 0 0-4z"></path><circle cx="166" cy="149.947" r="2" fill="#2d4356"></circle><path fill="#0bceb2" d="M118.154 155.947h-8.308a2.006 2.006 0 0 0 0 4h8.308a2.006 2.006 0 0 0 0-4zm-60 0h-8.308a2.006 2.006 0 0 0 0 4h8.308a2.006 2.006 0 0 0 0-4zm45.846 0H64a2 2 0 0 0 0 4h15.94v2H72a2 2 0 0 0 0 4h25a2 2 0 0 0 0-4h-8.94v-2H104a2 2 0 0 0 0-4z"></path><path fill="#2d4356" d="M150.721 147.947H132v-120a4 4 0 0 0-4-4H40a4 4 0 0 0-4 4v120H17.279a2.017 2.017 0 1 0 0 4H150.72a2.017 2.017 0 1 0 0-4zM40 27.947h88v12H40zm0 120v-104h88v104zm39-130a3 3 0 1 0-3-3 3.003 3.003 0 0 0 3 3zm0-4.5a1.5 1.5 0 1 1-1.5 1.5 1.501 1.501 0 0 1 1.5-1.5zm80.305 28.5a2 2 0 1 0 2 2 2.002 2.002 0 0 0-2-2zm0 3a1 1 0 1 1 1-1 1.001 1.001 0 0 1-1 1zM10.473 16.427a2 2 0 1 0 2 2 2.002 2.002 0 0 0-2-2zm0 3a1 1 0 1 1 1-1 1.001 1.001 0 0 1-1 1zm131.894 4.52a2 2 0 1 0 2 2 2.002 2.002 0 0 0-2-2zm0 3a1 1 0 1 1 1-1 1.001 1.001 0 0 1-1 1zM29.75 50.824a2 2 0 1 0-2 2 2.002 2.002 0 0 0 2-2zm-3 0a1 1 0 1 1 1 1 1.001 1.001 0 0 1-1-1z"></path><path fill="#0bceb2" d="m8.111 47.888 1.486-1.955-.939-.532-.954 2.19h-.032l-.969-2.175-.956.548 1.472 1.909v.031l-2.301-.297v1.063l2.316-.297v.032l-1.487 1.908.892.564 1.018-2.207h.031l.939 2.191.986-.563-1.502-1.878v-.031l2.362.281v-1.063l-2.362.312v-.031zM47.734 6.1l-.856 1.099.514.325.586-1.271h.018l.54 1.261.568-.324-.865-1.081v-.018l1.36.162V5.64l-1.36.18v-.018l.856-1.126-.54-.306-.55 1.261h-.018l-.558-1.252-.551.315.848 1.1v.018l-1.325-.172v.613l1.333-.171V6.1zM163.029 8.045V7.002l-2.317.306v-.03l1.458-1.918-.921-.522-.936 2.148h-.031l-.951-2.133-.937.537 1.443 1.873v.03l-2.256-.291v1.043l2.271-.291v.03l-1.458 1.872.875.553.998-2.164h.03l.921 2.149.967-.553-1.473-1.842v-.03l2.317.276zM116.351 4.158l1.258-1.655-.794-.45-.807 1.853h-.027l-.821-1.84-.808.464 1.245 1.615v.026l-1.947-.251v.9l1.96-.251v.026l-1.258 1.615.754.477.862-1.867h.026l.794 1.853.834-.476-1.271-1.589v-.026l1.999.238v-.9l-1.999.264v-.026z"></path></svg>